<svg xmlns="http://www.w3.org/2000/svg" version="1.0" width="2000.000000pt" height="400.000000pt" viewBox="0 0 1157.000000 216.000000" preserveAspectRatio="xMidYMid meet">
<metadata>
Created by potrace 1.10, written by Peter Selinger 2001-2011
</metadata>
<g transform="translate(0.000000,216.000000) scale(0.100000,-0.100000)" fill="#9CA3AF" stroke="none">
<path d="M376 2077 c-15 -11 -17 -28 -14 -135 l3 -122 -154 -2 c-149 -3 -154 -4 -162 -25 l-8 -23 161 0 c152 0 163 -1 185 -22 l23 -21 0 181 c0 100 -4 182 -8 182 -5 0 -16 -6 -26 -13z"/>
<path d="M281 2071 c-1 -8 -7 -11 -17 -7 -10 4 -14 2 -11 -6 2 -7 10 -12 16 -10 7 1 10 -2 6 -8 -3 -5 -2 -10 4 -10 5 0 12 6 14 13 3 7 6 5 6 -5 1 -21 -19 -24 -37 -6 -6 6 -15 8 -19 4 -4 -4 -1 -11 7 -16 8 -6 11 -10 5 -10 -5 0 -3 -5 7 -10 10 -6 25 -7 40 -1 12 6 19 10 14 10 -5 1 -2 9 5 18 12 14 12 15 0 9 -10 -7 -12 -3 -6 14 6 18 4 22 -8 17 -9 -3 -18 -1 -21 6 -3 8 -5 8 -5 -2z"/>
<path d="M435 2049 c1 -17 11 -25 42 -34 88 -26 157 -107 169 -197 6 -41 10 -48 29 -48 21 0 23 3 18 43 -15 124 -109 230 -224 252 -33 6 -36 5 -34 -16z"/>
<path d="M437 1957 c3 -13 21 -32 45 -45 39 -23 77 -84 78 -124 0 -13 8 -18 26 -18 24 0 25 2 19 33 -17 75 -54 126 -116 157 -49 26 -57 25 -52 -3z"/>
<path d="M1354 1971 c-14 -14 3 -21 54 -21 l57 0 0 -247 c0 -188 3 -247 13 -250 9 -4 12 50 12 246 l0 251 31 0 c17 0 29 5 27 11 -3 10 -184 19 -194 10z"/>
<path d="M1567 1973 c-13 -12 -7 -23 13 -23 11 0 20 7 20 15 0 15 -21 21 -33 8z"/>
<path d="M1684 1971 c-2 -2 -4 -76 -4 -163 0 -120 3 -158 13 -158 9 0 12 37 12 152 l0 151 78 -2 c58 -2 77 1 77 11 0 10 -22 13 -86 13 -47 0 -88 -2 -90 -4z"/>
<path d="M3207 1973 c-4 -3 -7 -123 -7 -265 0 -220 2 -258 15 -258 12 0 14 39 15 265 0 242 -3 278 -23 258z"/>
<path d="M3537 1973 c-11 -11 -8 -511 3 -518 7 -4 10 85 10 259 0 146 -1 266 -3 266 -2 0 -7 -3 -10 -7z"/>
<path d="M3640 1813 c0 -102 4 -163 10 -163 6 0 10 57 10 153 l0 152 72 0 c105 0 100 16 -5 18 l-87 2 0 -162z"/>
<path d="M3909 1976 c-9 -9 2 -396 11 -396 6 0 10 79 10 200 0 176 -4 213 -21 196z"/>
<path d="M134 1955 c-9 -23 10 -40 25 -22 9 11 8 17 -4 27 -12 10 -16 9 -21 -5z"/>
<path d="M207 1963 c-3 -5 -2 -15 3 -22 10 -17 43 -6 38 12 -6 15 -34 22 -41 10z"/>
<path d="M1086 1939 c-51 -61 -25 -141 72 -218 57 -45 82 -89 82 -146 0 -33 4 -45 13 -43 17 6 21 46 7 90 -7 26 -40 69 -96 128 -92 98 -102 124 -63 174 24 30 71 35 105 11 20 -13 34 -11 34 5 0 13 -51 30 -90 30 -30 0 -43 -6 -64 -31z"/>
<path d="M2042 1948 c-18 -13 -44 -48 -60 -78 -24 -49 -27 -66 -27 -155 0 -89 3 -106 28 -156 31 -64 39 -72 90 -94 54 -22 49 4 -5 30 -62 29 -82 76 -86 196 -5 121 9 172 58 221 32 32 44 38 82 38 24 0 53 -7 64 -15 20 -13 34 -11 34 5 0 14 -53 30 -98 30 -33 0 -57 -7 -80 -22z"/>
<path d="M2442 1944 c-53 -26 -116 -90 -106 -106 3 -5 21 8 40 30 103 121 304 104 389 -33 27 -43 30 -57 30 -126 0 -70 -3 -81 -30 -120 -17 -24 -50 -57 -74 -74 -38 -27 -50 -30 -119 -30 -43 0 -90 4 -106 9 -23 7 -28 6 -24 -5 7 -21 108 -38 162 -28 131 24 216 124 216 252 0 149 -109 256 -261 257 -50 0 -77 -6 -117 -26z"/>
<path d="M2936 1939 c-51 -61 -25 -141 72 -218 57 -45 82 -89 82 -146 0 -33 4 -45 13 -43 17 6 21 46 7 90 -7 26 -40 69 -96 128 -92 98 -102 124 -63 174 24 30 71 35 105 11 20 -13 34 -11 34 5 0 13 -51 30 -90 30 -30 0 -43 -6 -64 -31z"/>
<path d="M4190 1710 l0 -260 33 0 c41 0 77 10 77 21 0 5 -20 9 -45 9 l-45 0 0 235 0 235 40 0 c115 0 193 -94 193 -231 0 -82 -34 -163 -87 -205 -36 -29 -45 -44 -26 -44 21 0 81 65 104 113 88 183 -10 386 -186 387 l-58 0 0 -260z"/>
<path d="M723 1933 c-20 -13 -21 -16 -7 -48 8 -19 14 -53 14 -75 0 -37 2 -40 26 -40 26 0 27 1 21 53 -4 29 -12 69 -19 89 -12 34 -14 35 -35 21z"/>
<path d="M240 1910 c-8 -6 -47 -10 -87 -10 -61 0 -74 -3 -83 -19 -5 -11 -10 -22 -10 -25 0 -3 40 -6 89 -6 l89 0 11 32 c13 36 11 41 -9 28z"/>
<path d="M438 1850 c2 -16 10 -35 18 -41 8 -6 14 -18 14 -25 0 -8 11 -14 26 -14 20 0 25 4 20 16 -3 9 -6 19 -6 24 0 10 -59 70 -69 70 -4 0 -6 -13 -3 -30z"/>
<path d="M3430 1744 l0 -95 -95 3 c-71 2 -95 0 -95 -9 0 -10 26 -13 95 -13 l95 0 0 -90 c0 -53 4 -90 10 -90 6 0 10 72 10 195 0 123 -4 195 -10 195 -6 0 -10 -39 -10 -96z"/>
<path d="M438 1582 c3 -185 9 -222 33 -222 5 0 9 72 9 160 l0 160 165 0 c94 0 165 4 165 9 0 5 3 16 6 25 5 14 -13 16 -162 16 -165 0 -168 0 -193 24 l-26 25 3 -197z"/>
<path d="M70 1682 c0 -39 26 -142 36 -142 3 0 14 5 24 10 17 9 18 13 4 45 -7 19 -14 55 -14 80 0 41 -2 45 -25 45 -22 0 -25 -4 -25 -38z"/>
<path d="M162 1653 c8 -111 64 -193 163 -239 64 -31 87 -31 83 -2 -2 15 -15 26 -47 36 -90 30 -161 136 -161 239 0 27 -4 33 -21 33 -21 0 -21 -4 -17 -67z"/>
<path d="M240 1693 c0 -79 49 -157 121 -194 48 -24 49 -24 49 4 0 15 -11 28 -37 42 -45 24 -83 86 -83 138 0 33 -3 37 -25 37 -21 0 -25 -5 -25 -27z"/>
<path d="M330 1700 c0 -32 25 -83 54 -109 l26 -24 0 29 c0 17 -7 39 -15 50 -8 10 -15 31 -15 47 0 22 -4 27 -25 27 -18 0 -25 -5 -25 -20z"/>
<path d="M2110 1660 c0 -5 25 -10 55 -10 l56 0 -3 -77 -3 -78 -37 -9 c-21 -5 -38 -15 -38 -23 0 -16 -1 -16 41 -2 62 21 67 32 67 125 l0 84 -69 0 c-39 0 -69 -4 -69 -10z"/>
<path d="M589 1622 c-5 -13 -9 -24 -9 -25 0 -5 196 6 202 11 4 4 8 13 10 20 2 10 -21 13 -96 15 -95 2 -99 1 -107 -21z"/>
<path d="M1682 1543 l3 -88 93 -3 c70 -2 92 0 92 10 0 10 -21 12 -85 10 l-85 -3 0 70 c0 56 3 71 15 71 8 0 15 5 15 10 0 6 -11 10 -25 10 l-26 0 3 -87z"/>
<path d="M3640 1540 l0 -90 90 0 c65 0 90 3 90 13 0 9 -21 11 -80 9 l-80 -4 0 71 c0 58 3 71 16 71 8 0 12 5 9 10 -3 6 -15 10 -26 10 -17 0 -19 -8 -19 -90z"/>
<path d="M686 1563 c-9 -24 9 -39 29 -23 12 10 13 16 4 26 -15 19 -25 18 -33 -3z"/>
<path d="M602 1553 c2 -10 10 -18 18 -18 22 0 18 29 -3 33 -14 3 -18 -1 -15 -15z"/>
<path d="M3908 1495 l4 -45 99 0 c81 0 99 3 99 15 0 12 -17 15 -90 15 l-90 0 0 30 c0 17 -5 30 -13 30 -8 0 -11 -14 -9 -45z"/>
<path d="M560 1511 c0 -6 -5 -10 -11 -8 -6 1 -15 -8 -20 -20 -5 -14 -5 -23 1 -23 6 0 9 -4 8 -9 -2 -5 1 -9 6 -9 5 0 13 -6 17 -14 7 -10 9 -10 9 0 0 6 6 12 14 12 19 0 27 26 16 52 -5 13 -9 19 -9 14 -1 -5 -8 -3 -16 4 -10 9 -15 9 -15 1z m24 -30 c3 -5 -1 -14 -8 -20 -16 -13 -32 2 -21 19 8 12 22 13 29 1z"/>
<path d="M1206 1495 c-11 -8 -35 -15 -53 -15 -33 0 -45 -13 -20 -23 30 -11 117 21 117 44 0 13 -23 10 -44 -6z"/>
<path d="M3056 1495 c-11 -8 -35 -15 -54 -15 -23 0 -32 -4 -29 -12 9 -27 127 4 127 33 0 13 -23 10 -44 -6z"/>
</g>
</svg>